<svg width="147" height="212" viewBox="0 0 147 212" fill="none" xmlns="http://www.w3.org/2000/svg">
<g filter="url(#filter0_d_20_61)">
<path d="M135.449 168.964C135.366 169.974 134.779 170.874 133.888 171.356L75.1121 203.189C74.2208 203.672 73.146 203.672 72.2547 203.189L13.4776 171.356C12.5867 170.874 11.9995 169.974 11.9164 168.964L5.14071 86.6522C4.962 84.4811 7.08391 82.8494 9.13629 83.5797L72.6777 106.189C73.3282 106.42 74.0386 106.42 74.6891 106.189L138.23 83.5797C140.282 82.8494 142.404 84.4811 142.225 86.6522L135.449 168.964Z" fill="#1739C1"/>
<path d="M138.398 84.0504C140.108 83.442 141.876 84.8019 141.727 86.6109L134.95 168.923C134.881 169.765 134.392 170.515 133.65 170.917L74.8743 202.75C74.1316 203.152 73.2352 203.152 72.4925 202.75L13.7161 170.917H13.7151C12.9732 170.515 12.4837 169.765 12.4143 168.923L5.63895 86.6109C5.49021 84.8018 7.25879 83.4418 8.96902 84.0504L72.51 106.66C73.2688 106.929 74.098 106.929 74.8567 106.66L138.398 84.0504Z" stroke="#1739C1"/>
</g>
<path d="M139.888 84.4868C140.844 84.7522 140.871 86.0974 139.927 86.4019L73.9895 107.66C73.7901 107.724 73.5757 107.724 73.3762 107.66L7.43874 86.4018C6.49441 86.0974 6.52179 84.7522 7.4778 84.4868L73.4153 66.1821C73.5903 66.1335 73.7754 66.1335 73.9505 66.1821L139.888 84.4868Z" fill="white" stroke="#1739C1" stroke-width="2" stroke-linejoin="bevel"/>
<path d="M108.662 81.4751C104.864 81.4751 101.448 82.0629 98.9993 82.9957C97.7734 83.4627 96.8154 84.006 96.1731 84.5845C95.5306 85.1632 95.2454 85.7361 95.2454 86.2769C95.2454 86.8177 95.5306 87.3906 96.1731 87.9693C96.8154 88.5478 97.7734 89.0911 98.9993 89.5582C101.448 90.4909 104.864 91.0787 108.662 91.0787C112.461 91.0786 115.877 90.4909 118.325 89.5582C119.551 89.0912 120.508 88.5477 121.151 87.9693C121.793 87.3906 122.079 86.8177 122.079 86.2769C122.079 85.7361 121.793 85.1632 121.151 84.5845C120.508 84.0062 119.551 83.4626 118.325 82.9957C115.877 82.0629 112.461 81.4752 108.662 81.4751Z" fill="#1739C1" stroke="#1739C1"/>
<path d="M39.884 81.4751C43.6823 81.4751 47.0987 82.0629 49.5471 82.9957C50.773 83.4627 51.731 84.006 52.3733 84.5845C53.0157 85.1632 53.301 85.7361 53.301 86.2769C53.301 86.8177 53.0157 87.3906 52.3733 87.9693C51.731 88.5478 50.773 89.0911 49.5471 89.5582C47.0987 90.4909 43.6823 91.0787 39.884 91.0787C36.0858 91.0786 32.6693 90.4909 30.2209 89.5582C28.9954 89.0912 28.038 88.5477 27.3958 87.9693C26.7533 87.3906 26.467 86.8177 26.467 86.2769C26.467 85.7361 26.7533 85.1632 27.3958 84.5845C28.038 84.0062 28.9954 83.4626 30.2209 82.9957C32.6693 82.0629 36.0858 81.4752 39.884 81.4751Z" fill="#1739C1" stroke="#1739C1"/>
<path d="M74.2002 1.50292C97.2589 1.50292 115.952 20.1952 115.952 43.2539V86.9814C115.952 88.086 115.057 88.9814 113.952 88.9814H103.372C102.268 88.9814 101.372 88.086 101.372 86.9814V42.7705C101.372 27.7641 89.2066 15.5986 74.2002 15.5986C59.1939 15.5988 47.0293 27.7642 47.0293 42.7705V86.9814C47.0293 88.086 46.1339 88.9814 45.0293 88.9814H34.4492C33.3446 88.9814 32.4492 88.086 32.4492 86.9814V43.2539C32.4492 20.1954 51.1417 1.50318 74.2002 1.50292Z" fill="white"/>
<path d="M74.2002 1.50292V2.50292C96.7066 2.50292 114.952 20.7475 114.952 43.2539H115.952H116.952C116.952 19.6429 97.8111 0.502922 74.2002 0.502922V1.50292ZM115.952 43.2539H114.952V86.9814H115.952H116.952V43.2539H115.952ZM113.952 88.9814V87.9814H103.372V88.9814V89.9814H113.952V88.9814ZM101.372 86.9814H102.372V42.7705H101.372H100.372V86.9814H101.372ZM101.372 42.7705H102.372C102.372 27.2118 89.7589 14.5986 74.2002 14.5986V15.5986V16.5986C88.6544 16.5986 100.372 28.3163 100.372 42.7705H101.372ZM74.2002 15.5986V14.5986C58.6416 14.5989 46.0293 27.2119 46.0293 42.7705H47.0293H48.0293C48.0293 28.3164 59.7463 16.5988 74.2002 16.5986V15.5986ZM47.0293 42.7705H46.0293V86.9814H47.0293H48.0293V42.7705H47.0293ZM45.0293 88.9814V87.9814H34.4492V88.9814V89.9814H45.0293V88.9814ZM32.4492 86.9814H33.4492V43.2539H32.4492H31.4492V86.9814H32.4492ZM32.4492 43.2539H33.4492C33.4492 20.7477 51.694 2.50318 74.2002 2.50292V1.50292V0.502922C50.5895 0.50319 31.4492 19.6431 31.4492 43.2539H32.4492ZM34.4492 88.9814V87.9814C33.8969 87.9814 33.4492 87.5337 33.4492 86.9814H32.4492H31.4492C31.4492 88.6383 32.7924 89.9814 34.4492 89.9814V88.9814ZM103.372 88.9814V87.9814C102.82 87.9814 102.372 87.5337 102.372 86.9814H101.372H100.372C100.372 88.6383 101.715 89.9814 103.372 89.9814V88.9814ZM47.0293 86.9814H46.0293C46.0293 87.5337 45.5816 87.9814 45.0293 87.9814V88.9814V89.9814C46.6862 89.9814 48.0293 88.6383 48.0293 86.9814H47.0293ZM115.952 86.9814H114.952C114.952 87.5337 114.504 87.9814 113.952 87.9814V88.9814V89.9814C115.609 89.9814 116.952 88.6383 116.952 86.9814H115.952Z" fill="#1739C1"/>
<defs>
<filter id="filter0_d_20_61" x="1.13016" y="83.4029" width="145.105" height="128.148" filterUnits="userSpaceOnUse" color-interpolation-filters="sRGB">
<feFlood flood-opacity="0" result="BackgroundImageFix"/>
<feColorMatrix in="SourceAlpha" type="matrix" values="0 0 0 0 0 0 0 0 0 0 0 0 0 0 0 0 0 0 127 0" result="hardAlpha"/>
<feOffset dy="4"/>
<feGaussianBlur stdDeviation="2"/>
<feComposite in2="hardAlpha" operator="out"/>
<feColorMatrix type="matrix" values="0 0 0 0 0 0 0 0 0 0 0 0 0 0 0 0 0 0 0.25 0"/>
<feBlend mode="normal" in2="BackgroundImageFix" result="effect1_dropShadow_20_61"/>
<feBlend mode="normal" in="SourceGraphic" in2="effect1_dropShadow_20_61" result="shape"/>
</filter>
</defs>
</svg>
